# xmcd CD database file
#
# Track frame offsets:
#	150
#	19876
#	37266
#	60419
#	75207
#	96744
#	117638
#	133742
#	145854
#	174969
#	193294
#
# Disc length: 2811 seconds
#
# Revision: 0
# Processed by: cddbd v1.5.2PL0 Copyright (c) Steve Scherf et al.
# Submitted via: CDex 1.86
#
DISCID=9e0af90b
DTITLE=Louis Gearshifter Youngblood - Louis Gearshifter Youngblood
DYEAR=2017
DGENRE=Blues
TTITLE0=Juke Joint
TTITLE1=Rabbit in a Log
TTITLE2=No Working Blues
TTITLE3=A Big Change
TTITLE4=Goin' Down Slow
TTITLE5=You've Got to Hurt Before You Heal
TTITLE6=Hole in the Wall
TTITLE7=Bad Avenue
TTITLE8=Seven Sisters
TTITLE9=Meet Me With Your Black Drawers On
TTITLE10=Get Rich and Marry You
EXTD=YEAR: 2017
EXTT0=
EXTT1=
EXTT2=
EXTT3=
EXTT4=
EXTT5=
EXTT6=
EXTT7=
EXTT8=
EXTT9=
EXTT10=
PLAYORDER=
